<svg width="1078" height="606" viewBox="0 0 1078 606" fill="none" xmlns="http://www.w3.org/2000/svg">
<path d="M506.447 158.294H363.663C358.399 158.294 352.962 154.041 351.581 148.849L331.071 71.5601C329.69 66.3681 332.87 62.115 338.134 62.115H480.917C486.181 62.115 491.619 66.3681 493 71.5601L513.51 148.849C514.891 154.041 511.711 158.294 506.447 158.294Z" fill="#615690"/>
<path d="M394.701 236.545H305.154C301.856 236.545 298.447 233.878 297.578 230.619L284.715 182.147C283.847 178.888 285.844 176.221 289.142 176.221H378.689C381.988 176.221 385.397 178.888 386.265 182.147L399.128 230.619C399.996 233.878 398 236.545 394.701 236.545Z" fill="#CABEFF"/>
<path d="M571.553 447.706H714.337C719.601 447.706 725.038 451.959 726.419 457.151L746.929 534.44C748.31 539.632 745.13 543.885 739.866 543.885H597.083C591.819 543.885 586.381 539.632 585 534.44L564.49 457.151C563.109 451.959 566.289 447.706 571.553 447.706Z" fill="#615690"/>
<path d="M683.299 369.455H772.846C776.144 369.455 779.553 372.122 780.422 375.381L793.285 423.853C794.153 427.112 792.156 429.779 788.858 429.779H699.311C696.012 429.779 692.603 427.112 691.735 423.853L678.872 375.381C678.004 372.122 680 369.455 683.299 369.455Z" fill="#CABEFF"/>
<path d="M644.938 309.32C644.938 332.282 639.887 352.364 629.801 369.526C619.708 386.704 605.408 399.999 586.894 409.405C568.381 418.811 546.931 423.514 522.554 423.514H443.621L487.965 347.74V384.455H520.897C545.274 384.455 564.119 377.89 577.432 364.768C590.73 351.63 597.382 333.158 597.382 309.312C597.382 285.467 590.73 266.806 577.432 253.36C570.527 246.377 562.138 241.209 552.258 237.863L572.91 202.552C577.748 204.288 582.404 206.292 586.902 208.573C605.416 217.979 619.708 231.377 629.809 248.768C639.887 266.159 644.945 286.335 644.945 309.312L644.938 309.32Z" fill="#CABEFF"/>
<path d="M572.91 202.552L552.258 237.863C543.08 234.738 532.631 233.176 520.897 233.176H487.965V347.74L443.621 423.513H441.404V194.472H522.554C541.012 194.472 557.798 197.163 572.903 202.552H572.91Z" fill="#615690"/>
</svg>
